<?xml version="1.0" standalone="no"?>
<!DOCTYPE svg PUBLIC "-//W3C//DTD SVG 20010904//EN"
 "http://www.w3.org/TR/2001/REC-SVG-20010904/DTD/svg10.dtd">
<svg version="1.0" xmlns="http://www.w3.org/2000/svg"
 width="180.000000pt" height="180.000000pt" viewBox="0 0 180.000000 180.000000"
 preserveAspectRatio="xMidYMid meet">
<metadata>
Created by potrace 1.11, written by Peter Selinger 2001-2013
</metadata>
<g transform="translate(0.000000,180.000000) scale(0.100000,-0.100000)"
fill="#000000" stroke="none">
<path d="M198 1689 c-23 -13 -23 -30 2 -62 28 -35 25 -52 -11 -78 -24 -17 -29
-26 -24 -46 9 -39 -3 -61 -41 -73 -38 -13 -62 -46 -46 -62 8 -8 1 -17 -21 -32
-61 -42 -68 -82 -29 -186 12 -30 33 -101 47 -158 36 -143 66 -219 143 -357
248 -443 636 -602 1264 -520 15 1 43 8 62 15 19 6 57 13 83 15 60 4 149 27
164 42 6 6 8 20 4 32 -6 18 -14 21 -70 21 -35 0 -67 4 -70 10 -4 6 -15 4 -28
-5 -18 -11 -31 -12 -60 -4 -21 5 -45 9 -55 8 -9 -1 -27 -1 -40 0 l-23 1 25 33
c37 49 33 64 -14 57 -15 -2 -68 -40 -55 -40 4 0 -4 -9 -19 -21 -20 -16 -35
-19 -64 -15 -105 16 -266 90 -356 163 -71 57 -174 179 -212 248 -65 120 -93
257 -110 529 -8 128 -1 138 80 113 61 -19 82 -21 91 -7 10 16 -44 58 -104 80
-96 36 -191 84 -191 97 0 7 -19 17 -42 23 -63 15 -93 33 -93 55 0 16 -8 21
-45 23 -57 4 -71 16 -63 54 9 47 -35 73 -79 47z m60 -16 c2 -8 -6 -13 -21 -13
-14 0 -28 -6 -30 -12 -3 -7 -6 -4 -6 8 -1 11 2 24 6 28 11 10 46 3 51 -11z
m69 -109 c-3 -3 -12 -4 -19 -1 -8 3 -5 6 6 6 11 1 17 -2 13 -5z m27 -53 c25
-10 29 -51 5 -51 -17 0 -49 35 -49 52 0 10 18 9 44 -1z m-49 -31 c4 -6 -6 -10
-22 -9 -25 0 -26 1 -8 9 11 5 21 9 22 9 1 1 5 -3 8 -9z m142 -47 c1 -19 -1
-22 -8 -12 -7 11 -9 9 -9 -8 0 -34 -18 -37 -45 -7 -20 21 -25 23 -25 10 0 -10
-5 -14 -10 -11 -6 4 -32 7 -58 7 -45 1 -44 2 38 23 112 30 115 30 117 -2z
m223 -51 c0 -45 -92 -84 -228 -98 -32 -3 -92 -20 -135 -37 -49 -19 -81 -27
-85 -21 -9 12 -68 2 -64 -11 1 -6 -2 -10 -8 -9 -5 1 -16 2 -24 3 -21 2 -31 41
-15 52 11 7 9 9 -7 9 -29 0 -44 -19 -44 -60 -1 -34 -1 -35 -14 -11 -24 43 2
80 67 96 21 6 27 4 27 -9 0 -18 30 -36 59 -36 19 0 20 2 9 23 -7 12 -17 25
-23 29 -11 8 -16 7 157 52 150 40 180 43 172 22 -6 -16 22 -30 32 -15 3 5 0
16 -6 24 -11 13 -2 15 59 15 62 0 71 -2 71 -18z m119 -41 c7 -5 12 -13 10 -18
-2 -5 -12 -1 -21 9 -19 19 -13 24 11 9z m-163 -108 c1 -24 -2 -43 -7 -43 -4 0
-3 -15 2 -32 16 -52 20 -200 6 -192 -7 3 -4 -1 7 -10 17 -14 17 -16 2 -31 -21
-21 -21 -42 -1 -25 9 7 17 11 18 9 2 -2 11 -40 21 -84 10 -44 22 -87 27 -96 5
-9 4 -20 -3 -27 -8 -8 -4 -19 15 -42 15 -17 30 -30 34 -28 4 1 23 -18 41 -43
18 -24 46 -61 62 -81 17 -20 30 -42 30 -48 0 -23 81 -89 136 -110 32 -11 73
-34 91 -51 34 -30 42 -32 79 -30 12 1 24 -4 27 -12 3 -8 27 -20 54 -27 45 -12
47 -13 22 -21 -19 -7 -44 -3 -100 16 -41 14 -87 28 -104 31 -16 3 -32 8 -34
10 -2 2 -17 -4 -33 -12 -17 -9 -27 -11 -24 -5 4 6 2 11 -3 11 -6 0 -11 -4 -11
-10 0 -17 -26 -11 -44 9 -10 11 -24 17 -31 15 -19 -8 -44 23 -38 46 5 17 1 20
-30 20 -20 0 -47 5 -61 11 -32 15 -42 38 -15 36 10 -1 19 -7 19 -13 0 -7 7
-15 16 -18 23 -9 54 -7 54 3 0 22 -93 88 -187 132 -56 27 -103 51 -103 54 0 6
51 -14 66 -26 12 -10 44 -2 44 11 0 13 -41 60 -53 60 -7 0 -25 11 -42 25 -28
22 -28 24 -9 25 12 0 24 7 28 15 6 16 -36 71 -56 72 -7 0 -21 4 -30 8 -13 5
-18 2 -19 -11 0 -11 -3 -14 -6 -6 -2 6 -13 12 -23 12 -14 0 -22 11 -30 40 -6
22 -20 44 -30 50 -28 15 -25 28 5 22 30 -5 32 7 6 39 -17 21 -22 22 -40 12
-29 -18 -31 -17 -31 18 0 18 -4 28 -10 24 -6 -3 -8 -17 -6 -31 3 -17 0 -24
-12 -24 -12 0 -8 -8 13 -30 25 -26 27 -32 15 -40 -23 -14 -25 -13 -39 26 -7
19 -19 38 -27 41 -8 3 -11 9 -8 15 3 5 -4 20 -17 34 -21 22 -22 26 -7 41 25
24 49 10 42 -25 -4 -19 -1 -32 10 -41 14 -12 16 -8 16 31 0 38 -4 46 -30 61
-16 10 -30 15 -30 11 0 -3 -7 -1 -15 6 -17 14 -21 45 -5 35 6 -3 10 1 10 9 0
9 14 19 33 24 34 9 37 20 22 75 -7 25 -5 27 24 27 18 0 40 9 51 20 11 11 29
20 40 20 11 0 20 5 20 11 0 8 12 9 37 4 32 -6 35 -5 24 9 -11 13 -7 16 26 21
21 4 43 8 48 10 6 2 21 3 35 2 22 -2 25 -7 26 -44z m-356 -89 c-1 -5 -10 -12
-22 -17 -15 -5 -19 -4 -15 7 3 8 1 17 -6 20 -7 3 0 4 16 3 15 -2 27 -7 27 -13z
m-90 -14 c0 -5 -5 -10 -11 -10 -5 0 -7 5 -4 10 3 6 8 10 11 10 2 0 4 -4 4 -10z
m7 -76 c-3 -3 -12 -4 -19 -1 -8 3 -5 6 6 6 11 1 17 -2 13 -5z m-7 -34 c0 -5
-2 -10 -4 -10 -3 0 -8 5 -11 10 -3 6 -1 10 4 10 6 0 11 -4 11 -10z m-25 -108
c4 -20 15 -59 25 -85 11 -26 14 -45 8 -41 -17 11 -50 93 -42 106 4 6 3 8 -3 5
-6 -4 -15 5 -22 19 -15 33 -14 39 4 24 13 -11 14 -10 9 5 -5 12 -4 16 4 11 6
-4 14 -23 17 -44z m246 -109 c3 -34 12 -57 29 -75 25 -27 26 -40 3 -30 -85 38
-111 52 -117 67 -9 25 0 30 29 17 37 -17 48 -15 42 8 -3 11 -1 20 4 20 5 0 9
-3 10 -7z m-201 -68 c17 -39 70 -119 104 -155 8 -8 22 -34 31 -58 12 -29 25
-44 41 -48 13 -3 24 -11 24 -16 0 -13 83 -98 96 -98 14 0 49 -38 41 -46 -10
-10 -54 20 -111 75 -49 46 -116 130 -116 145 0 3 -26 44 -58 93 -60 91 -101
170 -81 158 6 -4 19 -26 29 -50z m360 -48 c0 -5 -4 -5 -10 -2 -5 3 -10 14 -10
23 0 15 2 15 10 2 5 -8 10 -19 10 -23z m-84 -27 c10 0 12 -5 7 -12 -13 -21 -9
-42 12 -66 11 -13 23 -32 27 -43 7 -17 4 -17 -40 6 -26 13 -54 29 -62 36 -12
9 -12 10 5 5 19 -6 19 -5 1 8 -10 8 -15 19 -12 24 3 6 -2 13 -12 17 -15 6 -14
8 8 20 14 8 31 12 38 10 8 -3 20 -5 28 -5z m109 -168 c-3 -3 -11 0 -18 7 -9
10 -8 11 6 5 10 -3 15 -9 12 -12z m-35 -24 c22 -7 40 -16 40 -20 0 -17 -78 -7
-101 12 l-24 19 23 1 c12 0 40 -6 62 -12z m103 -15 c9 -3 17 -9 17 -14 0 -12
-6 -11 -40 6 -32 17 -41 32 -12 20 9 -4 25 -10 35 -12z m42 7 c13 -5 14 -9 5
-9 -8 0 -24 4 -35 9 -13 5 -14 9 -5 9 8 0 24 -4 35 -9z m-15 -50 c8 -5 11 -10
5 -10 -5 0 -17 5 -25 10 -8 5 -10 10 -5 10 6 0 17 -5 25 -10z m15 -50 c3 -5
-4 -6 -15 -3 -11 3 -22 9 -25 13 -3 5 4 6 15 3 11 -3 22 -9 25 -13z m-16 -123
c23 -13 39 -26 37 -28 -3 -3 10 -4 29 -4 19 1 32 -1 30 -5 -2 -3 25 -17 61
-30 35 -13 64 -27 64 -31 0 -14 -206 53 -250 81 -13 9 -13 10 0 10 13 0 13 1
0 10 -20 13 -33 12 -24 -2 4 -7 3 -8 -5 -4 -12 8 -6 26 9 26 4 0 26 -10 49
-23z m417 -14 c-2 -12 -12 -18 -29 -18 -32 -1 -33 3 -9 21 24 19 41 17 38 -3z
m37 -10 c-7 -2 -10 -12 -7 -21 4 -13 3 -13 -6 2 -10 14 -10 20 1 27 7 4 16 5
19 2 3 -3 0 -8 -7 -10z m347 8 c45 -8 37 -14 -20 -14 -76 0 -101 4 -95 13 7
12 51 12 115 1z m258 -8 c-10 -2 -28 -2 -40 0 -13 2 -5 4 17 4 22 1 32 -1 23
-4z m-832 -38 c17 -4 24 -11 21 -20 -7 -16 55 -24 226 -29 110 -3 160 -15 71
-17 -133 -3 -317 19 -310 37 3 7 -12 16 -40 23 -46 12 -62 25 -19 16 14 -3 37
-7 51 -10z"/>
<path d="M565 1370 c-3 -6 1 -7 9 -4 18 7 21 14 7 14 -6 0 -13 -4 -16 -10z"/>
<path d="M385 1352 c-37 -7 -35 -18 3 -14 20 2 41 5 47 6 17 5 -30 12 -50 8z"/>
<path d="M290 1312 c0 -5 7 -13 16 -16 10 -4 14 -1 12 6 -5 15 -28 23 -28 10z"/>
<path d="M257 1290 c-3 -12 2 -20 16 -24 30 -8 34 1 10 24 -20 18 -21 18 -26
0z"/>
<path d="M577 1183 c-3 -15 -2 -36 3 -47 7 -20 7 -20 19 2 12 22 6 72 -9 72
-4 0 -10 -12 -13 -27z"/>
<path d="M370 1116 c0 -7 11 -21 24 -29 22 -15 24 -15 19 1 -6 24 -43 48 -43
28z"/>
<path d="M340 1054 c0 -10 -5 -14 -15 -10 -20 7 -19 -4 3 -20 24 -19 37 -17
21 2 -12 15 -11 16 11 9 14 -4 31 -10 39 -13 25 -10 1 17 -30 33 -26 14 -29
14 -29 -1z"/>
<path d="M380 1066 c0 -2 7 -7 16 -10 8 -3 12 -2 9 4 -6 10 -25 14 -25 6z"/>
<path d="M310 1009 c0 -5 -6 -7 -12 -3 -7 4 -3 -3 8 -16 26 -27 50 -19 34 11
-11 20 -30 26 -30 8z"/>
<path d="M547 974 c-10 -17 1 -77 18 -93 13 -13 15 -13 16 -1 2 29 -3 65 -11
70 -4 3 -9 12 -12 20 -2 8 -7 10 -11 4z"/>
<path d="M407 949 c4 -12 0 -25 -8 -31 -11 -8 -10 -9 4 -4 10 3 17 0 17 -8 0
-7 8 -21 19 -30 17 -16 20 -16 35 -1 15 15 15 18 -2 40 -24 33 -41 39 -35 12
2 -12 -3 -8 -11 11 -17 36 -27 42 -19 11z"/>
<path d="M670 731 c0 -6 4 -13 10 -16 6 -3 7 1 4 9 -7 18 -14 21 -14 7z"/>
<path d="M800 512 c0 -5 10 -17 21 -28 22 -19 22 -19 10 3 -12 24 -31 39 -31
25z"/>
<path d="M670 220 c8 -5 20 -10 25 -10 6 0 3 5 -5 10 -8 5 -19 10 -25 10 -5 0
-3 -5 5 -10z"/>
</g>
</svg>
